<svg version="1.1" id="Layer_1" xmlns="http://www.w3.org/2000/svg" xmlns:xlink="http://www.w3.org/1999/xlink" x="0px" y="0px"
	 width="100%" viewBox="0 0 269 100" enable-background="new 0 0 269 100" xml:space="preserve">

<path fill="#0A0A0C" opacity="1.000000" stroke="none" 
	d="
M170.948471,59.989071 
	C170.916443,63.291317 171.290390,66.216042 170.643997,68.894524 
	C170.250412,70.525360 168.414307,72.717262 166.984451,72.915733 
	C165.725769,73.090439 163.341660,71.111961 162.836945,69.617508 
	C161.467957,65.563744 160.279221,61.294666 160.029434,57.051487 
	C159.591339,49.609074 159.907135,42.122288 159.907135,34.365139 
	C153.789047,34.770630 154.474579,30.264446 154.119995,26.506281 
	C148.706024,30.087954 145.690598,39.445862 146.222733,50.776585 
	C147.336227,51.242260 148.589615,51.651138 149.732025,52.266159 
	C152.964478,54.006340 153.192184,57.550243 149.744247,58.519779 
	C144.676834,59.944706 144.546127,63.252842 144.677109,67.222641 
	C144.715256,68.379372 144.766113,69.660751 144.331451,70.680527 
	C143.560303,72.489769 142.422256,74.142624 141.437714,75.860909 
	C140.122787,74.268654 138.695892,72.752197 137.543442,71.049942 
	C137.021942,70.279648 136.914078,69.149467 136.844574,68.166565 
	C136.510651,63.444588 135.406433,59.768028 129.275146,60.651424 
	C128.343246,60.785690 126.693512,58.833652 126.076866,57.518009 
	C125.327248,55.918678 125.320808,53.971020 125.082268,52.663921 
	C121.356102,54.068806 117.495369,56.832283 113.926651,56.496078 
	C110.471107,56.170536 107.315948,52.656479 104.031677,50.544674 
	C103.844582,51.192833 103.586510,53.114941 102.738243,54.726372 
	C101.945328,56.232643 100.297981,58.630825 99.431709,58.468956 
	C97.783623,58.160995 95.467499,56.524944 95.131874,55.052246 
	C94.262825,51.239037 94.294960,47.216537 94.024155,43.273693 
	C93.957848,42.308273 94.109627,41.327873 94.181099,39.977448 
	C92.044937,39.977448 90.130798,39.983265 88.216705,39.976254 
	C84.011169,39.960854 82.286423,41.979942 82.535385,46.222527 
	C82.709541,49.190464 82.819489,52.390038 81.890182,55.123028 
	C81.141830,57.323864 78.540436,60.691486 77.212669,60.494732 
	C74.990784,60.165489 72.654861,57.714035 71.268913,55.572144 
	C70.205788,53.929165 70.307060,51.390224 70.278275,49.244553 
	C70.135223,38.583908 70.061417,27.921244 70.115059,17.260054 
	C70.124832,15.318583 70.197319,12.675440 71.375725,11.601648 
	C73.279800,9.866612 76.155083,8.258924 78.563538,8.337368 
	C80.240959,8.392003 82.988037,11.209419 83.224915,13.053703 
	C83.873672,18.104645 83.448479,23.293531 83.448479,28.815193 
	C86.613213,28.815193 89.663376,28.815193 93.319542,28.815193 
	C93.002335,26.111948 92.408066,23.387197 92.434219,20.668415 
	C92.465721,17.393707 92.561180,13.986940 93.478470,10.888871 
	C94.498146,7.445009 97.291908,5.389206 101.142273,5.826557 
	C104.926216,6.256363 105.952095,9.258162 106.031456,12.364814 
	C106.220131,19.750118 106.092216,27.143509 106.092216,34.646915 
	C106.466179,34.250126 107.176712,33.589619 107.776085,32.840206 
	C108.915405,31.415695 109.840286,29.788225 111.123024,28.516087 
	C114.310966,25.354513 118.045273,22.815159 122.692108,24.536602 
	C127.821823,26.436928 130.464096,30.851143 131.086548,36.051781 
	C131.794601,41.967773 131.810165,47.966648 133.043808,54.354359 
	C133.747742,52.952477 134.800735,51.618393 135.088699,50.135719 
	C135.880875,46.056950 135.791306,41.729164 137.084427,37.843983 
	C138.944519,32.255329 140.988937,26.471996 144.271301,21.672113 
	C149.330673,14.273669 153.823029,14.097415 161.127914,19.641125 
	C161.993973,17.518295 162.356934,14.974584 163.808395,13.508512 
	C165.455215,11.845109 168.170792,10.173425 170.240631,10.374008 
	C171.596786,10.505431 173.201965,13.831508 173.651627,15.948524 
	C174.110886,18.110762 173.627945,20.641914 172.981262,22.842218 
	C169.431046,34.922012 169.870773,47.190006 170.948471,59.989071 
M120.312515,34.520634 
	C119.244690,36.147129 117.965378,37.681595 117.200249,39.439816 
	C116.830139,40.290287 117.425652,41.560966 117.583961,42.641396 
	C118.733124,42.311268 120.238533,42.321472 120.951767,41.574883 
	C122.159386,40.310791 123.161804,38.666050 123.710762,37.003151 
	C124.427864,34.830906 123.684151,33.389511 120.312515,34.520634 
z"/>
<path fill="#0A0A0C" opacity="1.000000" stroke="none" 
	d="
M184.512939,56.656036 
	C177.895126,56.707649 175.085678,54.677650 173.791595,48.899632 
	C172.156143,41.597481 173.808823,34.983707 178.690964,29.323666 
	C181.617844,25.930414 185.281586,23.324871 189.990509,24.212673 
	C194.934372,25.144770 198.089874,29.177067 198.720673,33.539539 
	C199.879608,41.554478 199.789597,49.759624 199.987747,57.891151 
	C200.011292,58.857841 198.666901,60.554562 197.806152,60.657745 
	C196.873154,60.769588 195.246307,59.627544 194.839066,58.650208 
	C193.982727,56.595112 193.726196,54.290081 193.241806,52.167900 
	C190.357178,53.684788 187.625793,55.121094 184.512939,56.656036 
M185.162704,40.567497 
	C186.237915,41.202518 187.999695,42.603714 188.280426,42.352154 
	C190.668381,40.212269 193.055344,37.871044 191.631927,34.005493 
	C187.408142,33.845440 186.551361,37.054199 185.162704,40.567497 
z"/>
<path fill="#EEEEEE" opacity="1.000000" stroke="none" 
	d="
M134.005188,89.994873 
	C137.567169,85.842552 142.467194,86.988037 146.878891,87.140556 
	C150.996979,87.282921 150.298676,90.181503 148.819672,93.400856 
	C147.202499,92.475937 145.713409,91.624260 144.231277,90.776558 
	C143.797668,91.237770 142.793304,92.306091 141.360962,93.829628 
	C140.822449,91.609711 140.515152,90.342934 140.207870,89.076157 
	C139.877731,89.069321 139.547592,89.062477 139.217453,89.055641 
	C139.027954,90.105621 138.838455,91.155609 138.504166,93.007782 
	C136.939896,92.184944 135.525497,91.440941 134.055542,90.348503 
	C134.000000,90.000069 134.005188,89.994873 134.005188,89.994873 
z"/>
<path fill="#EEEEEE" opacity="1.000000" stroke="none" 
	d="
M133.997604,90.003334 
	C132.177475,90.997795 130.451828,92.465103 128.514816,92.839821 
	C126.748367,93.181549 124.752769,92.338745 122.277214,91.919685 
	C122.203407,90.674629 122.112411,89.139496 122.058670,88.232796 
	C125.683846,87.840172 128.830002,87.372551 131.988617,87.262222 
	C132.636200,87.239601 133.330505,88.554543 134.004227,89.623909 
	C134.005188,89.994873 134.000000,90.000069 133.997604,90.003334 
z"/>
<path fill="#DCDCDE" opacity="1.000000" stroke="none" 
	d="
M120.648682,34.326218 
	C123.684151,33.389511 124.427864,34.830906 123.710762,37.003151 
	C123.161804,38.666050 122.159386,40.310791 120.951767,41.574883 
	C120.238533,42.321472 118.733124,42.311268 117.583961,42.641396 
	C117.425652,41.560966 116.830139,40.290287 117.200249,39.439816 
	C117.965378,37.681595 119.244690,36.147129 120.648682,34.326218 
z"/>
<path fill="#E4E4E7" opacity="1.000000" stroke="none" 
	d="
M185.225098,40.194180 
	C186.551361,37.054199 187.408142,33.845440 191.631927,34.005493 
	C193.055344,37.871044 190.668381,40.212269 188.280426,42.352154 
	C187.999695,42.603714 186.237915,41.202518 185.225098,40.194180 
z"/>
</svg>